<?xml version="1.0" encoding="utf-8"?>
<!-- Generator: Adobe Illustrator 24.0.0, SVG Export Plug-In . SVG Version: 6.00 Build 0)  -->
<svg version="1.1" id="Layer_1" xmlns="http://www.w3.org/2000/svg" xmlns:xlink="http://www.w3.org/1999/xlink" x="0px" y="0px"
	 viewBox="0 0 640 640" style="enable-background:new 0 0 640 640;" xml:space="preserve">
<style type="text/css">
	.st0{fill-rule:evenodd;clip-rule:evenodd;fill:#199D00;}
	.st1{fill-rule:evenodd;clip-rule:evenodd;fill:#FFFFFF;}
	.st2{fill-rule:evenodd;clip-rule:evenodd;fill:#1BA400;}
	.st3{fill-rule:evenodd;clip-rule:evenodd;fill:#1B9D00;}
	.st4{fill-rule:evenodd;clip-rule:evenodd;fill:#259F00;}
	.st5{fill-rule:evenodd;clip-rule:evenodd;fill:#209000;}
</style>
<g>
	<g>
		<g>
			<g transform="translate(80) scale(.9375)">
				<path class="st0" d="M-85.3,0h682.7v682.7H-85.3L-85.3,0L-85.3,0z"/>
				<path class="st1" d="M44.2,206.1c-0.9,12.1-2,33.2,8.2,35.4c12.3,1.2,5.5-20.9,10-25c0.8-2,2.4-2,2.5,0.5v18.7
					c-0.1,6.1,3.9,7.9,7,9.2c3.2-0.2,5.4-0.1,6.6,3l1.5,32.5c0,0,7.5,2.1,7.8-18.2c0.4-12-2.4-22-0.8-24.4c0.1-2.3,3-2.4,5-1.3
					c3.2,2.3,4.6,5.1,9.6,3.9c7.6-2.1,12.2-5.8,12.3-11.7c-0.4-5.5-1.1-11.2-3.5-16.7c0.3-1-1.5-3.6-1.1-4.6c1.4,2.1,3.4,2,3.9,0
					c-1.3-4.3-3.3-8.4-6.6-10.2c-2.7-2.4-6.6-1.9-8.1,3.1c-0.7,5.7,2.1,12.6,6.2,18.1c0.9,2.2,2.1,5.7,1.6,9.1
					c-2.2,1.3-4.4,0.7-6.3-1.2c0,0-6-4.5-6-5.5c1.6-10.4,0.4-11.5-0.5-14.4c-0.6-3.9-2.5-5.2-4-7.9c-1.5-1.6-3.6-1.6-4.5,0
					c-2.7,4.6-1.4,14.7,0.5,19.1c1.4,4.1,3.5,6.7,2.5,6.7c-0.8,2.3-2.5,1.8-3.8-0.9c-1.8-5.5-2.1-13.9-2.1-17.6
					c-0.5-4.6-1.1-14.5-4.2-17c-1.8-2.5-4.6-1.3-5.5,1c-0.2,4.6-0.2,9.2,0.3,13.4c2.1,7.4,2.7,14,3.7,21.5c0.3,10.2-5.9,4.4-5.6-0.6
					c1.4-6.5,1-16.9-0.2-19.5c-1-2.6-2.2-3.2-4.6-2.8c-1.9-0.1-6.9,5.3-8.3,14.4c0,0-1.2,4.6-1.7,8.8c-0.7,4.6-3.7,7.9-5.9-0.7
					C48.5,218,47.3,202.5,44.2,206.1L44.2,206.1z"/>
				<path class="st1" d="M77.6,255.5c-10.8,5.3-21.3,10.3-32,15.5c0.4-7.3,15.2-20.5,25.3-20.6C77.5,250.5,75.9,252.9,77.6,255.5
					L77.6,255.5z"/>
				<path class="st1" d="M72.1,265.6c-16.9,43.8,39.5,49.8,45.8,1.8c0.6-2,3-3.9,3.4-0.7c-1.3,43.5-43.6,46.5-50.8,32.8
					c-1.8-3.2-2.3-10.4-2.5-14.7c-1.1-8.6-5.5-5.2-6.2,3.2c-0.7,4.7-0.5,6-0.5,10.6c2.3,34.4,56.7,19.6,65.6-8.8
					c4.7-15.7-0.8-27.3,1.8-27.3c5.4,5.8,12.9,0.8,14.6-1.2c0.7-1,2.5-1.7,3.7-0.4c4.2,3,11.6,1.6,13.2-3.7
					c0.9-5.2,1.6-10.7,1.8-16.3c-3.4,1.1-6,1.8-6.2,3.2l-0.7,4.6c-0.3,1.5-3.3,1.5-3.4-0.4c-1.3-5.9-6.7-6.7-10,2.5
					c-2.2,1.8-6.2,2.1-6.6-0.5c0.5-6.2-2-7-6.9-4.1c-1.6-12.3-3.2-24.1-4.8-36.4c2.1-0.1,4,1.5,5.9-0.9c-2.1-6.5-6.5-19.8-8.9-20.8
					c-1.2-1.4-2.2-0.5-3.7-0.2c-2.6,0.8-5.1,3.1-4.3,7.5c3.1,18.9,5.1,33.3,8.2,52.2c0.5,2.2-1.4,5.1-3.7,4.8c-4-2.7-5-8.4-11.9-8.1
					c-5,0.1-10.7,5.5-11.4,10.8c-0.8,4.2-1.1,8.8,0,12.4c3.5,4.2,7.7,3.8,11.4,2.9c3-1.2,5.5-4.3,6.6-3.6c0.7,0.9,0.2,11-14.3,18.6
					c-8.7,3.9-15.7,4.8-19.4-2.3C75.3,278.7,77.8,261.7,72.1,265.6L72.1,265.6z"/>
				<path class="st1" d="M143.6,221.1c3.4-1.2,19.4-19.7,19.4-19.7c-0.8-0.7-1.6-1.2-2.4-2c-0.9-0.8-0.8-1.5,0-2.3
					c4-2.3,2.7-7.4,0.6-9.8c-3.4-1.5-6.4-1-8.6,0.1c-2.8,2.7-3.4,7-1.2,9.7c2.1,1,4.3,3.2,2.9,4.4c-6.6,7-24.5,19.2-22.5,19.6
					C132.2,221.7,143.3,221.7,143.6,221.1z M46.7,286.5c-6,9.7-6.5,24.1-3.2,28.4c1.8,2,4.7,2.9,6.8,2.3c3.8-1.6,5.4-9.4,4.5-12.2
					c-1.3-2-2.3-2.3-3.5-0.6c-2.7,5.4-3.8,1.7-4-1.3c-0.4-5.7,0.1-11.1,0.8-15.3C48.8,283.5,48.1,284.8,46.7,286.5z M303.8,271
					c-5.8-12.6-13.9-25.1-16.4-29.8c-2.6-4.8-21.9-33-24.8-36.2c-6.3-7.5,10.2,3.1-2.1-11.8c-4.7-4-5-4.3-8.8-7.5
					c-2-1.4-6.8-3.9-7.6,0.3c-0.4,3.7-0.2,5.7,0.4,8.9c0.5,2.1,3.5,5.5,5,7.5c19.6,26.6,37,53.3,53.8,87
					C306,288.1,305.4,273.1,303.8,271L303.8,271z"/>
				<path class="st1" d="M278.3,313.2c-1.1,1.3,2.8,6.8,8,6.8c8.6-1,16.2-5.8,23.2-18.7c1.9-3,5.2-9.4,5.3-14.4
					c0.7-29.1-1.4-51.7-5.8-72.8c-0.3-2-0.1-4.4,0.2-5c0.6-0.7,2.5,0,3.5-1.6c1.5-1.5-3.9-14.1-7-18.9c-1.1-2.1-1.5-3.6-3.3,0.3
					c-1.9,3.1-3.2,8.6-3,13.7c4.1,28.7,5.4,53.7,8.1,82.4c0.2,2.8-0.2,6.8-2,8.5C298.7,300.4,288.9,309.2,278.3,313.2L278.3,313.2z
					 M394.8,313.1c-6.2,3.6-6.2,7.7-1.2,7.8c8.6-1,18.8-1.7,25.8-12.4c1.9-3,4.1-11.1,4.2-16c0.7-29.1-0.4-50.8-4.7-71.8
					c-0.3-2-1.2-6.7-0.8-7.3c0.6-1.4,3.4,0.2,4.4-1.5c1.5-1.5-7.3-12.8-10.4-17.6c-1.1-2.1-1.5-3.6-3.3,0.3
					c-1.9,3.1-2.6,8.8-1.8,13.7c4.6,31.1,8,54.5,8.7,82.1c-0.4,2.6-0.5,4-1.7,7.3c-2.7,3.5-5.7,7.8-8.5,10
					C402.7,309.5,396.7,311.5,394.8,313.1L394.8,313.1z"/>
				<path class="st1" d="M399.4,285.2c-0.1-7.2,0.1-13.6-0.1-19s-1.2-9.9-3.1-13.7c-1.8-4.1-0.7-7.4-1.5-11.9s-0.6-11-1.9-16.2
					c-0.3-2-1.4-8.6-1.1-9.2c0.5-1.4,2.5,0,3.4-1.6c1.4-1.6-4.9-18.1-8.2-22.8c-1.2-2.1-3.3-1.4-5.9,2c-2.4,2.3-1.5,7.4-0.6,12.4
					c6.2,32.5,10.8,61.9,9.8,92.9C390,300.6,399.5,290.1,399.4,285.2L399.4,285.2z M353.7,244.9c-3.9-0.1-12-7.6-14.4-12.1
					c-0.9-2.5-0.3-5,0.5-6.4c1.4-0.9,3.7-2,5.3-1c0,0,1.7,2.4,1.4,2.7c2.1,1,3,0.4,3.2-0.4c0.1-1.5-0.6-2.4-0.6-4.1
					c0.9-4.5,6.1-5.2,8-2.3c1.4,1.8,1.9,5.5,2.2,8.1c0,1.3-2.1-0.2-3.3,0.1c-1.2,0.3-1.5,1.7-1.6,2.9
					C354.2,235.6,353.8,240.8,353.7,244.9L353.7,244.9z M281.9,293.3c1.1-9.9-0.4-27.5-0.5-33.3c-0.4-13.8-2.6-40.5-3.7-44.9
					c-1.2-8.4,3.4,0.9,2.8-3.9c-1.5-8.4-6.1-14.1-11.5-21.7c-1.8-2.5-1.7-3-4.4,0.6c-3,6.8-0.4,11.5,0.4,16.8
					c3.9,17.3,6.2,33.2,7.3,49s1.4,32.8,0.4,49.4C275.5,305.2,280.2,300.4,281.9,293.3L281.9,293.3z"/>
				<path class="st1" d="M412.7,277.4c-6.9-11.6-17.2-24.2-20-28.8s-26.2-35-29.1-38.1c-8.6-9.1,3.9-1.5-1.6-8.5
					c-4.7-5.2-6.1-6.8-10.1-10c-2-1.3-3.2-3.8-3.9,0.4c-0.3,3.7-0.5,8.2-0.3,11.3c0,1.7,1.8,5,3.4,7c20.8,25.7,43.4,51.8,61.6,84.8
					C415.2,294.3,414.3,279.5,412.7,277.4L412.7,277.4z"/>
				<path class="st2" d="M101.3,256c-0.5,0.9-1.6,2-1.2,3.1c0.8,1,1.4,1.3,2.7,1.3c1.1,0,2.7,0.3,3-0.4c0.6-0.7,1.1-2,0.6-3.3
					C105.1,253.9,101.9,255,101.3,256z"/>
				<path class="st1" d="M332.9,424.9c9.2,0.3,15.2,0.4,23.3,1.4c0,0,7-0.7,9.6-1.1c10.6-1,11.1,15.3,11.1,15.3
					c-0.1,9.6-3.8,10.1-8.5,11.1c-2.7,0.3-4.1-1.6-5.5-3.7c-1.8,0.7-4.2,0.8-7.1,0.4c-3.8-0.2-7.6-0.2-11.5-0.5
					c-4.1-0.4-6.2,0.4-10.3,0.1c-0.8,1.3-1.9,3.1-4.4,2.5c-2.1-0.2-4.5-6-3.8-10.5c1.5-3.2,1.1-2.1,0.9-3.5
					c-37.5-1-75.4-2.6-112.2-2.1c-28.8,0.1-57.2,1.3-85.7,2.5c-15.2-0.2-26.8-2.6-34.8-14.4c0.7,0,38.7,2.2,49.8,1.4
					c20.6-0.2,39.3-1.9,60.2-2.5c41.2,0.7,82.1,0.7,123.3,3.6c-3.9-2.7-4.1-9.2,2-10.7c0.5-0.4,0.8,3.2,1.7,3.1
					C336.1,416.9,333.9,423.6,332.9,424.9L332.9,424.9z M167.3,196.3c-6.2,18,3.6,37.6,10.4,35.7c4.9,2,8-7.3,10.1-17.7
					c1.4-2.9,2.4-3.2,3.1-1.7c-0.2,13.7,1,16.7,4.5,20.9c7.8,6,14.3,0.8,14.8,0.3l6.1-6.1c1.4-1.4,3.2-1.5,5.1-0.3
					c1.9,1.7,1.6,4.6,5.6,6.6c3.4,1.3,10.5,0.3,12.2-2.6c2.2-3.8,2.8-5.1,3.8-6.6c1.6-2.1,4.3-1.2,4.3-0.5c-0.3,1.2-1.8,2.4-0.8,4.5
					c1.9,1.4,2.3,0.5,3.5,0.2c4-1.9,6.9-10.6,6.9-10.6c0.2-3.2-1.6-2.9-2.8-2.3c-1.5,0.9-1.6,1.2-3.1,2.2c-1.9,0.3-5.7,1.6-7.6-1.3
					c-1.9-3.5-1.9-8.4-3.4-11.9c0-0.3-2.5-5.5-0.2-5.8c1.2,0.2,3.7,0.9,4.1-1.2c1.2-2.1-2.7-7.9-5.3-11c-2.3-2.5-5.5-2.8-8.6-0.3
					c-2.2,2-1.9,4.2-2.3,6.3c-0.6,2.4-0.4,5.4,2,8.7c2.2,4.3,6.1,9.9,4.8,17.6c0,0-2.3,3.7-6.3,3.2c-1.7-0.4-4.4-1.1-5.8-11.9
					c-1.1-8.2,0.3-19.6-3.2-25c-1.2-3.2-2.2-6.3-5.2-0.8c-0.8,2.2-4.3,5.4-1.8,12.3c2.1,4.3,2.9,11.3,2,19.1
					c-1.4,2.2-1.8,2.9-3.6,5.1c-2.6,2.8-5.5,2.1-7.7,1.1c-2.1-1.4-3.7-2.1-4.6-6.5c0.2-7,0.6-18.6-0.7-21c-1.9-3.8-5-2.4-6.3-1.3
					c-6.4,5.8-9.6,15.8-11.5,23.7c-1.8,5.7-3.7,4.1-5,1.8C171.5,216.2,171.2,192.3,167.3,196.3L167.3,196.3z"/>
				<path class="st1" d="M186.1,235.3c2.8-2,1.5-3.4,5.8,0.8c5.3,9.2,8.7,20.9,9.2,31.5c-0.2,2.6,1.6,4.2,2.4,3.6
					c0.5-6,15.2-14.5,28.6-15.8c2.1-0.4,1.1-4.4,1.4-6.4c-0.8-7.5,4.2-14.4,11.2-14.9c9.5,1.4,12.7,6.5,12.9,14.4
					c-1,15-16.6,17.6-25.3,18.7c-1.3,0.5-1.9,1.1,0,1.9l36.6,0.2l1.9,1.1c0.2,0.9-0.5,0.1-2,2.5c-1.4,2.4-3.6,7.9-3.7,11.6
					c-10.9,3.5-22.2,5-33.6,6.4c-4,2-6,4.7-5.1,7.7c1.3,3.4,10.2,6.7,10.2,6.9c1.7,1.1,3.7,3.5-0.5,8.6
					c-17.9-0.8-31.7-8.5-36.5-19.2c-1.4-1.1-3,0-4,1.4c-7,9.1-13.8,17.2-25.7,21.5c-7.1,1.8-14.3-1.1-17.8-5.7
					c-2.3-2.6-2.2-5.6-3-6.2c-3.8,1.7-36.8,15.8-32.6,9.3c8-8.7,21.9-15,34.2-23.5c0.9-2.8,2.5-12.5,7.3-15.7c0.3,0-0.8,5.6-0.7,8.1
					c0.1,1.9-0.1,2.7,0.3,2.2c0.8-0.5,15.7-12.3,16.9-15.9c1.4-2.1,0.4-7.3,0.4-7.4c-2.8-7.2-6.7-7.8-8.2-11.5
					c-1.3-4.7-0.7-10.3,2-11.8c2.4-2.2,5.3-1.9,7.9,0.5c3,2.7,5.7,8.1,6.4,12c-0.5,1.6-3.9-1-5.1-0.3c2.1,2.2,3.1,4.7,3.8,7.7
					c1.9,8.3,1.3,11.5-0.6,16.8c-6.6,14-15,18.1-22.4,23.3c-0.2,0.1-0.3,3.5,2.4,5.4c1,1,4.8,1.5,9.3,0.1
					c8.8-4.8,17.8-13.7,22.4-23.5c1.3-7.4-0.5-15.4-2.4-22.2c-2.9-6.7-6.3-16.4-6.3-16.5C184,238.8,184.3,237.4,186.1,235.3
					L186.1,235.3z M90.3,196.5c4.2,2,12.1,1.2,11.8-5.6c0-0.6-0.2-2.6-0.2-3.2c-0.9-2-3.2-1.5-3.7,0.6c-0.2,0.7,0.3,1.8-0.3,2.1
					c-0.4,0.4-1.7,0.1-1.6-1.7c0-0.6-0.4-1.2-0.7-1.6c-0.3-0.2-0.4-0.2-0.9-0.2c-0.6,0-0.6,0.2-0.9,0.7c-0.1,0.5-0.3,1-0.3,1.6
					c-0.1,0.7-0.3,0.9-0.8,1c-0.5,0-0.4,0.1-0.9-0.2c-0.3-0.3-0.6-0.4-0.6-0.9s-0.1-1.3-0.3-1.7c-0.2-0.3-0.6-0.4-1-0.6
					c-2.3,0-2.5,2.6-2.3,3.6C87.3,190.4,87.2,195.2,90.3,196.5z"/>
				<path class="st1" d="M213.8,249c4.2,2,14.2,0.9,11.8-5.6c0-0.6-0.2-2.6-0.2-3.2c-0.9-2-3.2-1.5-3.7,0.6
					c-0.2,0.7,0.3,1.8-0.3,2.1c-0.4,0.4-1.7,0.1-1.6-1.7c0-0.6-0.4-1.2-0.7-1.6c-0.3-0.2-0.4-0.2-0.9-0.2c-0.6,0-0.6,0.2-0.9,0.7
					c-0.1,0.5-0.3,1-0.3,1.6c-0.1,0.7-0.3,0.9-0.8,1c-0.5,0-0.4,0.1-0.9-0.2c-0.3-0.3-0.6-0.4-0.6-0.9s-0.1-1.3-0.3-1.7
					c-0.2-0.3-0.6-0.4-1-0.6c-2.3,0-2.5,2.6-2.3,3.6C210.8,243,210.7,247.7,213.8,249L213.8,249z M285.8,227.3
					c4.2,2,12.1,1.2,11.8-5.6c0-0.6-0.2-2.6-0.2-3.2c-0.9-2-3.2-1.5-3.7,0.6c-0.2,0.7,0.3,1.8-0.3,2.1c-0.4,0.4-1.7,0.1-1.6-1.7
					c0-0.6-0.4-1.2-0.7-1.6c-0.3-0.2-0.4-0.2-0.9-0.2c-0.6,0-0.6,0.2-0.9,0.7c-0.1,0.5-0.3,1-0.3,1.6c-0.1,0.7-0.3,0.9-0.8,1
					c-0.5,0-0.4,0.1-0.9-0.2c-0.3-0.3-0.6-0.4-0.6-0.9s-0.1-1.3-0.3-1.7c-0.2-0.3-0.6-0.4-1-0.6c-2.3,0-2.5,2.6-2.3,3.6
					C282.8,221.2,282.7,225.9,285.8,227.3z M323.1,281.9c-7.3,8.4-4.1,22.1-2.4,25.1c2.4,4.8,4.4,7.9,9.1,10.4
					c4.3,3.2,7.6,1.2,9.5-1c4.3-4.5,4.4-16,6.4-18.3c1.4-4.2,5-3.4,6.7-1.6c1.7,2.4,3.7,4,6.1,5.3c4,3.6,8.8,4.2,13.6,1
					c3.2-1.8,5.3-4.2,7.2-8.9c2.1-5.6,0.9-31.8,0.5-47.4c-0.2-1.2-4.2-21.3-4.2-21.5c0-0.2-0.5-10.3-1-12.7c-0.1-1-0.3-1.2,0.7-1.1
					c1.1,0.9,1.2,1,1.9,1.3c1.1,0.2,2.1-1.6,1.4-3.3l-10-18.6c-0.8-0.8-1.8-1.7-3.1,0.2c-1.2,1.1-2.5,3-2.5,5.5
					c0.3,4.4,1.1,9,1.4,13.4l4,22.7c1.3,16.2,1.6,29.4,2.8,45.6c-0.2,6.8-2.3,12.8-4.3,13.7c0,0-3,1.8-5-0.2
					c-1.5-0.6-7.4-9.9-7.4-9.9c-3-2.8-5-2-7.1,0c-5.9,5.7-8.6,16.5-12.6,23.9c-1,1.6-4,3.1-7.2-0.1
					C319.3,293.9,324.1,277.8,323.1,281.9L323.1,281.9z M287.7,187.6c3.8,1.6,6.4,9.3,5.6,13.1c-0.8,4.6-2.8,9.7-4.2,9.1
					c-1.6-0.6,1.1-4.6-0.4-8.9c-0.8-2.7-6-7.7-5.4-9.3C282.1,188.4,285.4,187,287.7,187.6L287.7,187.6z"/>
				<path class="st1" d="M335.2,286.5c0.8-9.3-0.5-14.9-0.8-20.3s-6.1-46.9-7.3-50.9c-1.4-7.7,5.7-1,4.9-5.5
					c-2.5-5.7-8.6-14-10.5-18.9c-1.2-2.1-0.7-4-3.3-0.6c-2.4,7.9-3.2,14.4-2.3,19.3c6.2,32.5,12.5,59.5,11.5,90.5
					C330.4,300,333.8,293.2,335.2,286.5L335.2,286.5z M399.7,200.7c3.4,1.7,5.5,11.4,5.1,14.1c-0.7,5-2.5,10.5-3.8,9.8
					c-1.4-0.6,0.3-7.4-0.4-9.6c-0.8-3-5.5-8.5-5-10.1C394.6,201.6,397.6,200.1,399.7,200.7L399.7,200.7z M144.1,269
					c3.3,1.3,5.2,8.4,4.9,10.4c-0.7,3.7-2.4,7.6-3.7,7.1c-1.4-0.5,0.3-5.4-0.4-7c-0.3-3.8-4.8-5.7-4.8-7.3
					C139.3,269.1,142,268.6,144.1,269L144.1,269z"/>
				<path class="st3" d="M223.6,279.7c4.2,0.3,6.4,3.6,2.4,5c-3.9,1.3-7.7,2.4-7.7,8.2c1.5,7.9-2,5.2-4,4.1
					c-2.4-1.7-9.2-5.9-10.2-15c-0.1-2.2,1.5-4,4.2-4C212.3,279.1,218.3,279.1,223.6,279.7L223.6,279.7z"/>
				<path class="st1" d="M56.1,185.3c4.9,1.5,5.1,8.7,4.8,10.8c-0.6,3.8-2.4,7.9-3.6,7.4c-1.3-0.5-0.1-5.6-0.7-7.3
					c-0.7-2.3-4.8-6.4-4.4-7.6C51.3,186,54.1,184.8,56.1,185.3z M152,219.1c-3.7,2-5.2,8.1-2.9,11.6c2.2,3.1,5.6,1.9,6,1.9
					c3.6,0.5,5.8-6.8,5.8-6.8s0.1-2.1-4.2,1.8c-1.8,0.3-2.1-0.3-2.5-1.4c-0.4-1.9-0.3-3.8,0.6-5.7
					C155.5,218.7,154.1,217.9,152,219.1L152,219.1z M179.9,182.5c-1.9,1.3-5.6,5.1-5.7,9.7c-0.1,2.5-0.6,2.5,1.1,4.1
					c1.2,1.7,2.4,1.6,4.8,0.3c1.4-1,1.8-1.7,2.3-3.4c0.6-2.9-3,1.4-3.5-1.8c-0.8-2.9,1.5-4.2,3.7-7
					C182.6,182.3,182.6,180.9,179.9,182.5L179.9,182.5z M202.4,186.5c-0.8,1.8-1.8,11.2-1.6,11.2c-0.6,2.8,2.9,4,4.5,0.4
					c2.4-6.5,2.4-9.4,2.6-12.2C207.2,181.7,204.3,181.8,202.4,186.5z M344.3,259.3c0.5-0.5,20-14.5,20-14.5c2-0.7,1.6,7.1,0.6,7.1
					c0.4,1.6-19.2,15-20.6,14.5C343.4,267,342.4,261,344.3,259.3L344.3,259.3z M362.1,259.1c3.4,1.7,4.8,11.9,4.4,14.6
					c0.1,5.3-3.3,9.7-4.6,9c-1.4-0.6,0.1-6.6-0.6-8.8c-0.8-3-3.7-8.6-3.2-10.2C357.2,260.3,360,258.4,362.1,259.1L362.1,259.1z
					 M246.1,302.7c1.4-2,5.5-4.8,5.6-4.8c1.9-1,3.8,0.8,3.7,0.6c0.3,1.9-1.2,3.7-0.7,6.3c0.4,1,0.7,2.2,2.6,1.8
					c3.1-2.4,6-2.6,9.1-2.8c2.4,0.1,2.5,4.2,1,4.2c-5.7,1.2-8.3,2.8-12.4,4.3c-1.9,1.1-3.6-0.3-3.6-0.5c0-0.2-1.1-1.1-0.3-3.7
					c0.1-2.1-0.7-3.2-2.4-2.9c-1.3,0.7-2.4,1.2-3.1-0.3C245.3,303.8,245.2,303.3,246.1,302.7L246.1,302.7z M382.7,308.2
					c0.8,1.1,1.4,2-0.1,3.8c-1.4,1.3-2.3,1.9-3.7,3.2c-0.6,1.1-1.1,2.8,0.9,3.3c3.6,1,12.1-4.4,12.1-4.6c1.4-1,0.9-3,0.8-3
					c-0.8-0.9-2.6-0.4-3.8-0.5c-0.6,0-2.5-0.3-1.6-2c0.8-1,1-1.7,1.5-3c0.6-1.3,0.1-2.1-2-2.8c-2.1-0.4-2.9-0.2-5.2,0
					c-1.3,0.3-1.7,0.8-1.9,2.3C379.8,307.4,381.2,307.3,382.7,308.2L382.7,308.2z"/>
				<path class="st4" d="M246.8,251c-0.5,0.9-2.3,0.9-4-0.1s-2.6-2.5-2.1-3.5c0.5-1,2.3-0.9,4,0.1
					C246.4,248.5,247.4,250.1,246.8,251z M157.7,197.1c-1,0.2-2.3-0.7-3-2s-0.3-2.7,0.7-2.9c1-0.2,2.3,0.7,3,2
					S158.8,196.9,157.7,197.1z"/>
				<path class="st5" d="M333.9,437.5c9.4,0.5,18.1,0.1,27.5,0.6c1.7,1.4,0.5,5-0.6,4.7c-3-0.1-4.8-0.2-7.8-0.2
					c-0.1-3-7.7-2.5-7.5,0.1c-4.1,0.5-7.8-0.1-11.9-0.3C332.3,440.8,332.5,438.1,333.9,437.5L333.9,437.5z"/>
			</g>
		</g>
	</g>
</g>
</svg>
