<?xml version="1.0" encoding="utf-8"?>
<!-- Generator: Adobe Illustrator 24.0.0, SVG Export Plug-In . SVG Version: 6.00 Build 0)  -->
<svg version="1.1" id="Layer_1" xmlns="http://www.w3.org/2000/svg" xmlns:xlink="http://www.w3.org/1999/xlink" x="0px" y="0px"
	 viewBox="0 0 640 640" style="enable-background:new 0 0 640 640;" xml:space="preserve">
<style type="text/css">
	.st0{fill-rule:evenodd;clip-rule:evenodd;fill:#BD3D44;}
	.st1{fill-rule:evenodd;clip-rule:evenodd;fill:#FFFFFF;}
	.st2{fill-rule:evenodd;clip-rule:evenodd;fill:#192F5D;}
</style>
<g transform="scale(.9375)">
	<g>
		<path class="st0" d="M0,0h972.8v39.4H0V0z M0,78.8h972.8v39.4H0V78.8z M0,157.5h972.8v39.4H0V157.5z M0,236.3h972.8v39.4H0V236.3z
			 M0,315.1h972.8v39.4H0V315.1z M0,393.8h972.8v39.4H0V393.8z M0,472.6h972.8V512H0V472.6z"/>
		<path class="st1" d="M0,39.4h972.8v39.4H0V39.4z M0,118.2h972.8v39.4H0V118.2z M0,196.9h972.8v39.4H0V196.9z M0,275.7h972.8v39.4
			H0V275.7z M0,354.5h972.8v39.4H0V354.5z M0,433.2h972.8v39.4H0V433.2z"/>
	</g>
	<path class="st2" d="M0,0h389.1v275.7H0V0z"/>
	<g>
		<path class="st1" d="M32.4,11.8L36,22.7h11.5l-9.3,6.7l3.5,10.9l-9.3-6.7l-9.3,6.7l3.5-10.9l-9.3-6.7h11.5L32.4,11.8z M97.3,11.8
			l3.5,10.9h11.5l-9.3,6.7l3.5,10.9l-9.3-6.7L88,40.3l3.5-10.9l-9.3-6.7h11.5L97.3,11.8z M162.1,11.8l3.5,10.9h11.5l-9.3,6.7
			l3.5,10.9l-9.3-6.7l-9.3,6.7l3.5-10.9l-9.3-6.7h11.5L162.1,11.8z M227,11.8l3.5,10.9H242l-9.3,6.7l3.5,10.9l-9.3-6.7l-9.3,6.7
			l3.5-10.9l-9.3-6.7h11.5L227,11.8z M291.8,11.8l3.5,10.9h11.5l-9.3,6.7l3.5,10.9l-9.3-6.7l-9.3,6.7l3.5-10.9l-9.3-6.7h11.5
			L291.8,11.8z M356.7,11.8l3.5,10.9h11.5l-9.3,6.7l3.5,10.9l-9.3-6.7l-9.3,6.7l3.5-10.9l-9.3-6.7h11.5L356.7,11.8z M64.9,39.4
			l3.5,10.9h11.5L70.6,57l3.5,10.9l-9.3-6.7l-9.3,6.7L59.1,57l-9.3-6.7h11.5L64.9,39.4z M129.7,39.4l3.5,10.9h11.5l-9.3,6.7
			l3.5,10.9l-9.3-6.7l-9.3,6.7L124,57l-9.3-6.7h11.5L129.7,39.4z M194.6,39.4l3.5,10.9h11.5l-9.3,6.7l3.5,10.9l-9.3-6.7l-9.3,6.7
			l3.5-10.9l-9.3-6.7H191L194.6,39.4z M259.4,39.4l3.5,10.9h11.5l-9.3,6.7l3.5,10.9l-9.3-6.7l-9.3,6.7l3.5-10.9l-9.3-6.7h11.5
			L259.4,39.4z M324.3,39.4l3.5,10.9h11.5L330,57l3.5,10.9l-9.3-6.7l-9.3,6.7l3.5-10.9l-9.3-6.7h11.5L324.3,39.4z M32.4,66.9
			L36,77.8h11.5l-9.3,6.7l3.5,10.9l-9.3-6.7l-9.3,6.7l3.5-10.9l-9.3-6.7h11.5L32.4,66.9z M97.3,66.9l3.5,10.9h11.5l-9.3,6.7
			l3.5,10.9l-9.3-6.7L88,95.5l3.5-10.9l-9.3-6.7h11.5L97.3,66.9z M162.1,66.9l3.5,10.9h11.5l-9.3,6.7l3.5,10.9l-9.3-6.7l-9.3,6.7
			l3.5-10.9l-9.3-6.7h11.5L162.1,66.9z M227,66.9l3.5,10.9H242l-9.3,6.7l3.5,10.9l-9.3-6.7l-9.3,6.7l3.5-10.9l-9.3-6.7h11.5
			L227,66.9z M291.8,66.9l3.5,10.9h11.5l-9.3,6.7l3.5,10.9l-9.3-6.7l-9.3,6.7l3.5-10.9l-9.3-6.7h11.5L291.8,66.9z M356.7,66.9
			l3.5,10.9h11.5l-9.3,6.7l3.5,10.9l-9.3-6.7l-9.3,6.7l3.5-10.9l-9.3-6.7h11.5L356.7,66.9z M64.9,94.5l3.5,10.9h11.5l-9.3,6.7
			l3.5,10.9l-9.3-6.7l-9.3,6.7l3.5-10.9l-9.3-6.7h11.5L64.9,94.5z M129.7,94.5l3.5,10.9h11.5l-9.3,6.7L139,123l-9.3-6.7l-9.3,6.7
			l3.5-10.9l-9.3-6.7h11.5L129.7,94.5z M194.6,94.5l3.5,10.9h11.5l-9.3,6.7l3.5,10.9l-9.3-6.7l-9.3,6.7l3.5-10.9l-9.3-6.7H191
			L194.6,94.5z M259.4,94.5l3.5,10.9h11.5l-9.3,6.7l3.5,10.9l-9.3-6.7l-9.3,6.7l3.5-10.9l-9.3-6.7h11.5L259.4,94.5z M324.3,94.5
			l3.5,10.9h11.5l-9.3,6.7l3.5,10.9l-9.3-6.7L315,123l3.5-10.9l-9.3-6.7h11.5L324.3,94.5z M32.4,122.1L36,133h11.5l-9.3,6.7
			l3.5,10.9l-9.3-6.7l-9.3,6.7l3.5-10.9l-9.3-6.7h11.5L32.4,122.1z M97.3,122.1l3.5,10.9h11.5l-9.3,6.7l3.5,10.9l-9.3-6.7l-9.3,6.7
			l3.5-10.9l-9.3-6.7h11.5L97.3,122.1z M162.1,122.1l3.5,10.9h11.5l-9.3,6.7l3.5,10.9l-9.3-6.7l-9.3,6.7l3.5-10.9l-9.3-6.7h11.5
			L162.1,122.1z M227,122.1l3.5,10.9H242l-9.3,6.7l3.5,10.9l-9.3-6.7l-9.3,6.7l3.5-10.9L212,133h11.5L227,122.1z M291.8,122.1
			l3.5,10.9h11.5l-9.3,6.7l3.5,10.9l-9.3-6.7l-9.3,6.7l3.5-10.9l-9.3-6.7h11.5L291.8,122.1z M356.7,122.1l3.5,10.9h11.5l-9.3,6.7
			l3.5,10.9l-9.3-6.7l-9.3,6.7l3.5-10.9l-9.3-6.7h11.5L356.7,122.1z M64.9,149.6l3.5,10.9h11.5l-9.3,6.7l3.5,10.9l-9.3-6.7l-9.3,6.7
			l3.5-10.9l-9.3-6.7h11.5L64.9,149.6z M129.7,149.6l3.5,10.9h11.5l-9.3,6.7l3.5,10.9l-9.3-6.7l-9.3,6.7l3.5-10.9l-9.3-6.7h11.5
			L129.7,149.6z M194.6,149.6l3.5,10.9h11.5l-9.3,6.7l3.5,10.9l-9.3-6.7l-9.3,6.7l3.5-10.9l-9.3-6.7H191L194.6,149.6z M259.4,149.6
			l3.5,10.9h11.5l-9.3,6.7l3.5,10.9l-9.3-6.7l-9.3,6.7l3.5-10.9l-9.3-6.7h11.5L259.4,149.6z M324.3,149.6l3.5,10.9h11.5l-9.3,6.7
			l3.5,10.9l-9.3-6.7l-9.3,6.7l3.5-10.9l-9.3-6.7h11.5L324.3,149.6z"/>
		<g>
			<path class="st1" d="M32.4,177.2l3.5,10.9h11.5l-9.3,6.7l3.5,10.9l-9.3-6.7l-9.3,6.7l3.5-10.9l-9.3-6.7h11.5L32.4,177.2z
				 M97.3,177.2l3.5,10.9h11.5l-9.3,6.7l3.5,10.9l-9.3-6.7l-9.3,6.7l3.5-10.9l-9.3-6.7h11.5L97.3,177.2z M162.1,177.2l3.5,10.9h11.5
				l-9.3,6.7l3.5,10.9l-9.3-6.7l-9.3,6.7l3.5-10.9l-9.3-6.7h11.5L162.1,177.2z M227,177.2l3.5,10.9H242l-9.3,6.7l3.5,10.9L227,199
				l-9.3,6.7l3.5-10.9l-9.3-6.7h11.5L227,177.2z M291.8,177.2l3.5,10.9h11.5l-9.3,6.7l3.5,10.9l-9.3-6.7l-9.3,6.7l3.5-10.9l-9.3-6.7
				h11.5L291.8,177.2z M356.7,177.2l3.5,10.9h11.5l-9.3,6.7l3.5,10.9l-9.3-6.7l-9.3,6.7l3.5-10.9l-9.3-6.7h11.5L356.7,177.2z
				 M64.9,204.8l3.5,10.9h11.5l-9.3,6.7l3.5,10.9l-9.3-6.7l-9.3,6.7l3.5-10.9l-9.3-6.7h11.5L64.9,204.8z M129.7,204.8l3.5,10.9h11.5
				l-9.3,6.7l3.5,10.9l-9.3-6.7l-9.3,6.7l3.5-10.9l-9.3-6.7h11.5L129.7,204.8z M194.6,204.8l3.5,10.9h11.5l-9.3,6.7l3.5,10.9
				l-9.3-6.7l-9.3,6.7l3.5-10.9l-9.3-6.7H191L194.6,204.8z M259.4,204.8l3.5,10.9h11.5l-9.3,6.7l3.5,10.9l-9.3-6.7l-9.3,6.7
				l3.5-10.9l-9.3-6.7h11.5L259.4,204.8z M324.3,204.8l3.5,10.9h11.5l-9.3,6.7l3.5,10.9l-9.3-6.7l-9.3,6.7l3.5-10.9l-9.3-6.7h11.5
				L324.3,204.8z"/>
		</g>
		<g>
			<path class="st1" d="M32.4,232.4l3.5,10.9h11.5l-9.3,6.7l3.5,10.9l-9.3-6.7l-9.3,6.7l3.5-10.9l-9.3-6.7h11.5L32.4,232.4z
				 M97.3,232.4l3.5,10.9h11.5L103,250l3.5,10.9l-9.3-6.7l-9.3,6.7l3.5-10.9l-9.3-6.7h11.5L97.3,232.4z M162.1,232.4l3.5,10.9h11.5
				l-9.3,6.7l3.5,10.9l-9.3-6.7l-9.3,6.7l3.5-10.9l-9.3-6.7h11.5L162.1,232.4z M227,232.4l3.5,10.9H242l-9.3,6.7l3.5,10.9l-9.3-6.7
				l-9.3,6.7l3.5-10.9l-9.3-6.7h11.5L227,232.4z M291.8,232.4l3.5,10.9h11.5l-9.3,6.7l3.5,10.9l-9.3-6.7l-9.3,6.7l3.5-10.9l-9.3-6.7
				h11.5L291.8,232.4z M356.7,232.4l3.5,10.9h11.5l-9.3,6.7l3.5,10.9l-9.3-6.7l-9.3,6.7L351,250l-9.3-6.7h11.5L356.7,232.4z"/>
		</g>
	</g>
</g>
<path class="st0" d="M0,521.2h912v36.9H0V521.2z M0,595h912v36.9H0V595z M0,668.9h912v36.9H0V668.9z M0,742.7h912v36.9H0V742.7z
	 M0,816.5h912v36.9H0V816.5z M0,890.4h912v36.9H0V890.4z M0,964.2h912v36.9H0V964.2z"/>
</svg>
